<svg version="1.0" xmlns="http://www.w3.org/2000/svg" viewBox="0 0 442.000000 86.000000"
 preserveAspectRatio="xMidYMid meet">

<g transform="translate(0.000000,86.000000) scale(0.100000,-0.100000)"
fill="#ffffff" stroke="none">
<path d="M167 823 c-2 -5 -19 -104 -38 -220 l-33 -213 -33 0 c-18 0 -33 -5
-33 -11 0 -8 17 -10 50 -7 28 3 50 1 50 -3 0 -5 -8 -9 -19 -9 -19 0 -31 -25
-31 -68 0 -22 3 -23 58 -20 l57 3 17 100 c10 55 20 106 23 113 2 7 22 12 47
12 24 0 79 3 124 6 74 6 84 10 122 43 40 34 43 40 58 124 l15 89 -26 34 -26
34 -189 0 c-104 0 -191 -3 -193 -7z m299 -155 c-4 -28 -9 -55 -12 -60 -3 -4
-50 -8 -105 -8 l-101 0 7 43 c13 82 5 77 117 77 l101 0 -7 -52z"/>
<path d="M650 620 l-34 -210 -27 0 c-15 0 -31 -4 -34 -10 -4 -6 7 -10 24 -10
26 0 31 -4 31 -24 0 -34 -13 -40 -105 -47 l-80 -6 88 -1 c70 -2 87 -5 87 -17
0 -13 25 -15 169 -15 l169 0 49 38 c67 54 69 57 85 154 l15 87 -31 4 -31 4 33
1 c17 1 32 5 32 10 0 4 7 48 15 97 8 50 18 105 21 123 l5 32 -61 0 c-33 0 -60
-1 -61 -2 0 -2 -17 -102 -37 -223 l-37 -220 -103 -3 c-102 -3 -103 -3 -97 20
8 35 65 397 65 413 0 12 -14 15 -59 15 l-58 0 -33 -210z"/>
<path d="M1776 803 c-12 -57 -86 -526 -84 -528 2 -1 30 1 63 4 l60 6 42 255
c23 140 42 263 42 273 1 14 -8 17 -58 17 -57 0 -60 -1 -65 -27z"/>
<path d="M2014 799 c-22 -17 -40 -32 -42 -34 -4 -4 -42 -227 -42 -247 0 -16
14 -18 160 -18 147 0 173 -4 153 -24 -4 -4 -8 -15 -8 -24 -5 -68 5 -62 -105
-62 l-100 0 0 25 c0 29 -4 29 -65 13 -50 -13 -52 -18 -61 -94 l-7 -54 120 0
c79 0 123 4 131 12 9 9 12 9 12 0 0 -8 17 -12 45 -12 41 0 51 5 96 48 39 38
51 56 57 92 7 43 9 45 47 51 l40 6 -39 2 -38 1 6 38 c4 20 9 49 12 65 l6 27
-166 0 -166 0 0 24 c0 13 3 38 6 55 l7 31 98 0 99 0 0 -36 c0 -29 3 -34 18
-30 9 2 36 10 59 17 45 13 47 17 59 107 l7 52 -180 0 -180 0 -39 -31z"/>
<path d="M2506 808 c-3 -13 -15 -84 -26 -158 -25 -158 -25 -158 -45 -274 -9
-48 -14 -90 -11 -93 11 -11 116 21 120 36 7 25 16 84 21 136 3 27 7 50 9 53 3
2 44 6 91 8 68 3 92 8 112 24 14 11 27 19 28 18 2 -2 -7 -64 -20 -138 -13 -74
-21 -137 -19 -139 1 -2 29 3 61 11 l58 14 38 228 c30 183 35 231 25 237 -10 6
-8 12 7 23 17 14 18 17 5 26 -23 15 -87 12 -104 -5 -8 -8 -28 -15 -45 -15 -17
0 -31 -4 -31 -10 0 -5 14 -10 30 -10 35 0 35 -3 17 -100 l-12 -65 -114 -3
c-69 -2 -118 1 -125 8 -7 7 -5 10 6 10 12 0 18 21 28 93 8 50 13 94 12 97 -1
3 -26 6 -57 8 -50 2 -55 0 -59 -20z"/>
<path d="M3053 810 c-3 -11 -13 -20 -22 -20 -13 0 -14 -2 -2 -9 13 -8 9 -44
-22 -243 -20 -128 -37 -239 -37 -246 0 -8 19 -12 60 -12 33 0 60 3 60 6 0 4 9
61 21 128 14 81 17 122 10 124 -15 5 -14 22 2 22 8 0 19 44 33 130 11 72 18
133 15 135 -2 3 -29 5 -59 5 -45 0 -55 -3 -59 -20z"/>
<path d="M3843 792 c-40 -35 -43 -42 -54 -115 l-11 -77 -33 0 c-19 0 -42 -3
-52 -6 -11 -4 -14 -3 -6 3 10 7 43 162 43 206 0 14 -9 17 -58 17 l-58 0 -28
-177 c-16 -98 -32 -184 -36 -192 -5 -9 -30 57 -69 177 l-62 192 -83 0 c-97 0
-85 17 -112 -157 -15 -102 -19 -113 -38 -114 -17 -1 -18 -2 -3 -6 21 -6 21
-13 -2 -148 -10 -60 -17 -113 -15 -116 2 -4 21 -3 41 2 21 5 61 9 88 10 33 2
40 4 20 6 l-31 4 28 162 c15 89 29 169 30 177 2 8 21 -39 42 -105 21 -66 41
-125 43 -132 3 -6 -6 -13 -19 -16 -13 -2 1 -5 31 -6 50 -1 65 -9 27 -15 -19
-3 -19 -4 -10 -51 l6 -35 93 0 93 0 7 51 c5 38 12 52 29 59 17 7 17 9 4 9 -21
1 -21 7 -8 87 19 108 17 104 55 104 42 0 41 6 15 -155 -29 -176 -42 -158 108
-153 70 2 116 1 102 -3 -14 -5 5 -6 45 -3 65 6 74 10 132 55 41 34 64 59 68
79 3 16 14 31 23 33 15 4 14 5 -2 6 -11 1 -16 6 -13 14 3 8 8 39 12 70 l7 57
-77 0 c-71 0 -80 -3 -122 -33 l-46 -32 54 -5 c30 -3 53 -8 52 -13 0 -4 -4 -34
-8 -67 l-7 -60 -109 0 c-81 0 -109 3 -108 13 0 6 12 84 27 172 l27 160 105 0
105 0 -3 -32 c-4 -38 2 -40 75 -18 55 16 55 18 68 108 l7 47 -193 0 -194 -1
-42 -37z m354 -348 c-3 -3 -12 -4 -19 -1 -8 3 -5 6 6 6 11 1 17 -2 13 -5z"/>
<path d="M1200 800 c0 -11 -18 -133 -41 -271 -22 -138 -39 -252 -37 -255 7 -6
101 27 114 40 6 6 14 28 17 49 5 33 3 37 -16 37 -16 0 -18 3 -9 12 9 9 15 9
24 0 14 -14 78 -16 78 -2 0 6 -16 10 -36 10 -29 0 -34 3 -30 18 3 9 10 55 17
102 7 47 15 88 19 93 3 4 33 -74 65 -173 l59 -180 50 -1 c28 -1 65 -3 83 -5
18 -1 36 3 41 9 5 7 17 59 26 117 37 229 37 230 56 230 11 0 22 5 25 10 3 6
-4 10 -16 10 -20 0 -21 3 -16 53 4 29 10 67 13 85 l7 32 -61 0 -61 0 -6 -32
c-3 -18 -17 -103 -31 -188 -14 -85 -27 -156 -29 -159 -6 -5 -12 14 -76 212
l-53 167 -88 0 c-81 0 -88 -2 -88 -20z m460 -154 c0 -2 -7 -6 -15 -10 -8 -3
-15 -1 -15 4 0 6 7 10 15 10 8 0 15 -2 15 -4z m-437 -83 c-7 -2 -21 -2 -30 0
-10 3 -4 5 12 5 17 0 24 -2 18 -5z"/>
<path d="M4244 658 c-3 -4 13 -8 35 -8 23 0 41 3 41 8 0 10 -70 11 -76 0z"/>
<path d="M2470 270 c-23 -7 -22 -8 10 -9 19 0 42 4 50 9 12 8 10 10 -10 9 -14
-1 -36 -5 -50 -9z"/>
<path d="M1438 253 c34 -2 88 -2 120 0 31 2 3 3 -63 3 -66 0 -92 -1 -57 -3z"/>
<path d="M270 170 c-11 -11 -20 -33 -20 -50 0 -30 1 -30 53 -30 52 0 77 12 77
37 0 9 -13 13 -37 12 -25 -1 -30 -3 -15 -6 31 -6 22 -27 -12 -31 -38 -5 -49 8
-37 41 12 31 55 46 82 28 24 -15 29 -14 29 4 0 24 -95 20 -120 -5z"/>
<path d="M678 143 c-19 -52 -14 -70 9 -35 20 29 73 31 73 2 0 -11 4 -20 8 -20
12 0 44 78 37 90 -3 5 -30 10 -58 10 l-52 0 -17 -47z m97 17 c0 -10 -12 -16
-32 -18 -24 -2 -33 1 -33 12 0 8 6 17 13 20 22 9 52 1 52 -14z"/>
<path d="M1120 145 c-24 -24 -41 -48 -37 -52 4 -3 13 -1 19 5 16 16 85 15 91
0 2 -7 8 -10 12 -6 13 12 -8 92 -25 96 -8 1 -35 -18 -60 -43z m60 -5 c0 -13
-7 -20 -20 -20 -23 0 -26 10 -8 28 18 18 28 15 28 -8z"/>
<path d="M1540 182 c0 -5 6 -17 14 -28 8 -10 12 -29 9 -41 -6 -28 13 -31 22
-3 3 10 25 33 47 50 23 16 36 30 29 30 -7 0 -27 -10 -44 -22 l-30 -22 -15 22
c-14 22 -32 29 -32 14z"/>
<path d="M2215 181 c-3 -6 -12 -28 -20 -50 -12 -34 -12 -41 -1 -41 8 0 16 9
19 21 4 16 12 20 39 17 25 -2 32 -7 30 -20 -2 -11 3 -18 13 -18 9 0 15 9 15
23 0 13 5 28 11 34 24 24 2 43 -50 43 -27 0 -52 -4 -56 -9z m73 -7 c18 -5 20
-9 11 -20 -15 -18 -69 -18 -69 -1 0 26 16 32 58 21z"/>
<path d="M2642 143 c-23 -26 -39 -49 -37 -52 3 -2 11 1 17 7 15 15 88 16 88 2
0 -5 7 -10 16 -10 10 0 14 6 11 14 -3 8 -9 31 -13 50 -9 50 -32 47 -82 -11z
m58 2 c0 -18 -5 -25 -20 -25 -24 0 -25 8 -3 32 21 23 23 23 23 -7z"/>
<path d="M3064 150 c12 -76 24 -78 86 -15 53 54 46 74 -8 22 -21 -20 -41 -37
-44 -37 -4 0 -8 14 -10 32 -2 17 -9 34 -17 36 -11 4 -13 -4 -7 -38z"/>
<path d="M3471 153 c-7 -21 -15 -44 -17 -50 -4 -10 8 -13 48 -11 44 1 46 2 15
5 -47 5 -45 27 4 31 49 5 62 22 16 22 -20 0 -37 5 -37 10 0 6 15 10 33 10 17
0 39 5 47 10 11 7 -1 10 -41 10 -56 0 -56 0 -68 -37z"/>
<path d="M3901 153 c-7 -21 -15 -44 -17 -50 -3 -7 -1 -13 5 -13 6 0 17 16 25
35 8 19 17 35 20 35 2 0 14 -16 26 -35 29 -46 53 -45 69 3 7 20 15 43 17 50 3
6 0 12 -6 12 -6 0 -19 -18 -27 -40 l-16 -40 -24 40 c-31 51 -56 52 -72 3z"/>
</g>
</svg>
