<?xml version="1.0" standalone="no"?>
<!DOCTYPE svg PUBLIC "-//W3C//DTD SVG 20010904//EN"
 "http://www.w3.org/TR/2001/REC-SVG-20010904/DTD/svg10.dtd">
<svg version="1.0" xmlns="http://www.w3.org/2000/svg"
 width="720.000000pt" height="128.000000pt" viewBox="0 0 720.000000 128.000000"
 preserveAspectRatio="xMidYMid meet">

<g transform="translate(0.000000,128.000000) scale(0.100000,-0.100000)"
fill="#000000" stroke="none">
<path d="M2420 1145 l0 -65 -160 0 -160 0 0 -495 0 -495 80 0 80 0 2 402 3
403 243 3 242 2 0 -267 c0 -235 -2 -272 -18 -303 -22 -44 -53 -60 -121 -60
-38 0 -52 -3 -48 -12 2 -7 13 -48 23 -92 l18 -78 62 5 c115 11 183 56 226 151
22 49 23 63 26 354 3 290 4 302 23 302 17 0 19 8 19 90 l0 90 -185 0 -185 0 0
65 0 65 -85 0 -85 0 0 -65z"/>
<path d="M5170 1145 l0 -65 -70 0 -70 0 0 -90 0 -90 70 0 70 0 0 -405 0 -405
85 0 85 0 0 405 0 405 176 0 c174 0 176 0 153 -19 -45 -35 -164 -108 -226
-140 -35 -17 -63 -34 -63 -37 0 -3 18 -37 41 -75 31 -54 45 -69 57 -64 73 28
346 214 466 317 l39 34 -15 79 -14 80 -307 3 -307 2 0 65 0 65 -85 0 -85 0 0
-65z"/>
<path d="M253 1091 c-29 -33 -53 -62 -53 -64 0 -3 27 -34 61 -68 51 -54 124
-145 224 -283 l20 -27 63 45 c35 24 66 47 69 50 17 17 -289 406 -320 406 -7 0
-36 -27 -64 -59z"/>
<path d="M1274 803 c-86 -192 -186 -409 -220 -485 l-62 -136 34 -50 33 -50
345 88 344 88 46 -99 46 -98 67 31 c38 17 72 35 77 39 5 4 -54 148 -135 326
-78 175 -144 319 -144 321 -3 4 -155 -67 -155 -72 0 -3 27 -67 60 -142 33 -75
59 -138 57 -140 -9 -9 -419 -116 -424 -111 -3 4 72 176 168 383 96 207 175
379 176 383 2 6 -135 72 -148 71 -4 0 -78 -156 -165 -347z"/>
<path d="M930 1071 c-37 -110 -117 -270 -197 -391 -93 -140 -288 -340 -400
-410 -40 -25 -72 -49 -72 -55 0 -5 19 -43 43 -82 l42 -73 79 53 c44 28 126 97
183 151 172 166 300 341 397 541 46 94 111 273 103 280 -2 1 -37 14 -79 28
l-77 25 -22 -67z"/>
<path d="M3080 830 l0 -280 85 0 85 0 0 190 0 190 243 -2 242 -3 2 -72 c3
-179 -30 -282 -124 -383 -97 -105 -231 -169 -403 -192 l-87 -11 23 -79 c13
-43 25 -82 28 -87 3 -4 43 -2 89 5 317 51 555 246 622 509 11 44 15 115 15
277 l0 218 -410 0 -410 0 0 -280z"/>
<path d="M4040 1020 l0 -90 60 0 60 0 0 -90 0 -90 -75 0 -75 0 0 -90 0 -90 74
0 74 0 3 -142 c4 -133 6 -147 33 -201 33 -68 88 -109 167 -126 28 -6 151 -11
274 -11 l225 0 6 27 c3 16 10 44 14 63 4 19 11 47 14 62 l6 28 -238 0 c-144 0
-251 4 -270 11 -48 16 -62 59 -62 183 l0 106 315 0 315 0 0 90 0 90 -315 0
-315 0 0 90 0 90 220 0 220 0 0 90 0 90 -365 0 -365 0 0 -90z"/>
<path d="M6080 1020 l0 -90 55 0 c30 0 55 -1 56 -2 7 -39 10 -99 4 -134 l-6
-44 -70 0 -69 0 0 -90 0 -89 73 -3 72 -3 5 -145 c4 -130 8 -151 30 -194 60
-116 125 -136 441 -136 l226 0 20 87 20 88 -251 5 c-170 3 -258 9 -272 17 -35
20 -49 70 -49 178 l0 100 313 3 312 2 0 90 0 90 -315 0 -315 0 0 90 0 90 225
0 225 0 0 90 0 90 -365 0 -365 0 0 -90z"/>
<path d="M5568 508 l-66 -51 71 -81 c58 -68 152 -189 236 -305 l17 -24 67 52
c55 44 65 56 57 70 -31 59 -294 391 -309 391 -4 0 -37 -23 -73 -52z"/>
</g>
</svg>
